<?xml version="1.0" encoding="UTF-8" standalone="no"?>
<!-- Generator: Adobe Illustrator 14.0.0, SVG Export Plug-In . SVG Version: 6.00 Build 43363)  -->

<svg
   xmlns:dc="http://purl.org/dc/elements/1.1/"
   xmlns:cc="http://creativecommons.org/ns#"
   xmlns:rdf="http://www.w3.org/1999/02/22-rdf-syntax-ns#"
   xmlns:svg="http://www.w3.org/2000/svg"
   xmlns="http://www.w3.org/2000/svg"
   xmlns:sodipodi="http://sodipodi.sourceforge.net/DTD/sodipodi-0.dtd"
   xmlns:inkscape="http://www.inkscape.org/namespaces/inkscape"
   version="1.1"
   id="Ebene_1"
   x="0px"
   y="0px"
   width="690.44202"
   height="328.375"
   viewBox="0 0 690.44202 328.375"
   enable-background="new 0 0 760 398"
   xml:space="preserve"
   sodipodi:docname="LMU_Muenchen_Logo.svg"
   inkscape:version="0.92.3 (2405546, 2018-03-11)"><metadata
   id="metadata87"><rdf:RDF><cc:Work
       rdf:about=""><dc:format>image/svg+xml</dc:format><dc:type
         rdf:resource="http://purl.org/dc/dcmitype/StillImage" /><dc:title /></cc:Work></rdf:RDF></metadata><defs
   id="defs85" /><sodipodi:namedview
   pagecolor="#ffffff"
   bordercolor="#666666"
   borderopacity="1"
   objecttolerance="10"
   gridtolerance="10"
   guidetolerance="10"
   inkscape:pageopacity="0"
   inkscape:pageshadow="2"
   inkscape:window-width="1920"
   inkscape:window-height="1200"
   id="namedview83"
   showgrid="false"
   inkscape:zoom="1.2318544"
   inkscape:cx="73.772054"
   inkscape:cy="50.345241"
   inkscape:window-x="1920"
   inkscape:window-y="0"
   inkscape:window-maximized="0"
   inkscape:current-layer="Ebene_1"
   fit-margin-top="0"
   fit-margin-left="0"
   fit-margin-right="0"
   fit-margin-bottom="0" />
<rect
   x="0.75"
   y="0.75"
   width="326.715"
   height="326.875"
   id="rect2"
   style="fill:#ffffff;fill-opacity:1;stroke:#7f7f7f;stroke-width:3.02362205;stroke-miterlimit:4;stroke-dasharray:none;stroke-opacity:1" />
<rect
   x="362.97702"
   y="0.75"
   width="326.715"
   height="326.875"
   id="rect4"
   style="fill:#ffffff;stroke:#7f7f7f;stroke-width:3.02362205;stroke-miterlimit:4;stroke-dasharray:none;stroke-opacity:1" />
<path
   d="m 198.34,259.68 v -69.621 h 38.574 v 73.449 c 0,5.211 1.191,8.922 3.578,11.133 2.398,2.215 5.602,3.32 9.605,3.32 4.012,0 7.242,-1.105 9.688,-3.32 2.445,-2.211 3.684,-5.922 3.684,-11.133 v -73.449 h 38.391 v 69.621 c 0,8.309 -1.25,15.367 -3.754,21.188 -2.496,5.82 -6.012,10.547 -10.512,14.211 -4.512,3.664 -9.969,6.32 -16.367,7.969 -6.402,1.672 -13.449,2.5 -21.129,2.5 -7.566,0 -14.527,-0.828 -20.871,-2.5 -6.34,-1.648 -11.801,-4.305 -16.359,-7.969 -4.57,-3.664 -8.137,-8.391 -10.688,-14.211 -2.566,-5.821 -3.84,-12.879 -3.84,-21.188 z m -68.129,17.449 c 0,0.77 0.379,1.16 1.164,1.16 0.547,0 0.832,-0.391 0.832,-1.16 1,-7.316 2.281,-15.312 3.84,-24.012 1.566,-8.695 3.109,-17.172 4.676,-25.43 1.559,-8.242 3.062,-15.754 4.504,-22.5 1.449,-6.77 2.562,-11.797 3.348,-15.129 h 36.066 v 112.5 h -21.703 v -94.715 c 0,-0.559 -0.398,-0.832 -1.172,-0.832 -0.441,0 -0.668,0.273 -0.668,0.832 -0.887,4.422 -1.84,9.383 -2.836,14.871 -1.012,5.48 -2.23,11.902 -3.684,19.27 -1.445,7.371 -3.195,15.984 -5.25,25.836 -2.059,9.867 -4.484,21.438 -7.266,34.738 h -22.551 c -2.777,-13.074 -5.145,-24.375 -7.094,-33.906 -1.957,-9.52 -3.652,-17.879 -5.098,-25.09 -1.441,-7.195 -2.727,-13.621 -3.84,-19.273 -1.105,-5.648 -2.223,-11.133 -3.34,-16.445 0,-0.559 -0.391002,-0.832 -1.172002,-0.832 -0.438,0 -0.664,0.273 -0.664,0.832 v 94.715 h -19.867 v -112.5 H 114.666 c 0.559,2.434 1.234,5.586 2.008,9.473 0.77,3.887 1.645,8.223 2.582,13.047 0.953,4.805 1.918,9.969 2.93,15.438 0.996,5.5 2,11.086 3.004,16.797 1.004,5.703 1.918,11.301 2.758,16.789 0.834,5.475 1.588,10.655 2.263,15.526 z M 23.999998,190.059 h 11.02 V 294.25 h 32.059 v 8.309 h -43.079 z"
   id="path6"
   style="fill:#7f7f7f;fill-opacity:1"
   inkscape:connector-curvature="0" />
<polygon
   points="438.119,205.6 421.791,205.6 421.791,181.709 426.244,181.709 426.244,202.057 438.119,202.057 "
   id="polygon8"
   inkscape:transform-center-x="-127.45012"
   inkscape:transform-center-y="-381.53858"
   style="fill:#7f7f7f;fill-opacity:1"
   transform="translate(-34.775002,-34.818001)" />
<path
   d="m 419.602,171.27 c -5.141,0 -9.988,-1.848 -9.988,-10.043 v -14.336 h 4.469 v 14.746 c 0,3.789 1.816,6.348 5.52,6.348 3.641,0 5.418,-2.391 5.418,-6.348 v -14.746 h 4.465 v 14.336 c -10e-4,7.613 -4.947,10.043 -9.884,10.043 z"
   id="path10"
   style="fill:#7f7f7f;fill-opacity:1"
   inkscape:connector-curvature="0" />
<path
   d="m 445.579,150.27 h -2.535 v 17.102 h 2.535 c 5.078,0 7.855,-2.25 7.855,-8.703 0,-5.598 -2.684,-8.399 -7.855,-8.399 z m 0.203,20.512 h -7.203 v -23.891 h 7.203 c 8.508,0 12.312,4.914 12.312,11.777 0,7.852 -4.594,12.114 -12.312,12.114 z"
   id="path12"
   style="fill:#7f7f7f;fill-opacity:1"
   inkscape:connector-curvature="0" />
<polygon
   points="505.045,205.6 497.775,181.709 502.744,181.709 507.619,200.412 512.217,183.654 516.943,183.654 521.518,200.412 526.354,181.709 531.021,181.709 523.779,205.6 519.037,205.6 514.408,188.838 509.779,205.6 "
   id="polygon14"
   style="fill:#7f7f7f;fill-opacity:1"
   transform="translate(-34.775002,-34.818001)" />
<rect
   x="503.00003"
   y="146.89099"
   width="4.461"
   height="23.891001"
   id="rect16"
   style="fill:#7f7f7f;fill-opacity:1" />
<path
   d="m 527.36,171.27 c -7.273,0 -11.625,-4.992 -11.625,-12.637 0,-8.266 6.066,-12.223 11.625,-12.223 3.914,0 6.449,1.23 8.066,2.664 l -1.824,3.344 c -1.301,-1.469 -3.078,-2.801 -6.242,-2.801 -4.016,0 -7,3.59 -7,9.016 0,5.562 2.984,9.422 7.203,9.422 2.438,0 3.848,-0.617 4.426,-1.156 v -6.082 h -5.352 v -3.277 h 9.648 v 11.473 c -2.066,1.261 -4.843,2.257 -8.925,2.257 z"
   id="path18"
   style="fill:#7f7f7f;fill-opacity:1"
   inkscape:connector-curvature="0" />
<rect
   x="542.422"
   y="158.59799"
   width="9.3669996"
   height="2.973"
   id="rect20"
   style="fill:#7f7f7f;fill-opacity:1" />
<polygon
   points="426.283,231.342 425.561,249.506 421.205,249.506 422.611,225.6 428.174,225.6 434.721,241.439 440.939,225.6 446.494,225.6 447.896,249.506 443.443,249.506 442.623,231.342 436.541,246.225 432.49,246.225 "
   id="polygon22"
   style="fill:#7f7f7f;fill-opacity:1"
   transform="translate(-34.775002,-34.818001)" />
<path
   d="m 430.688,195.227 -3.738,10.445 h 7.547 z m 7.066,19.461 -2.094,-5.812 h -9.805 l -2.125,5.812 h -4.707 l 9.539,-23.906 h 4.672 l 9.465,23.906 z"
   id="path24"
   style="fill:#7f7f7f;fill-opacity:1"
   inkscape:connector-curvature="0" />
<polygon
   points="490.135,237.115 481.658,225.6 487.252,225.6 493.154,234.475 498.916,225.6 504.271,225.6 495.826,237.115 504.986,249.506 499.393,249.506 492.908,239.865 486.295,249.506 480.939,249.506 "
   id="polygon26"
   style="fill:#7f7f7f;fill-opacity:1"
   transform="translate(-34.775002,-34.818001)" />
<rect
   x="476.76599"
   y="190.78201"
   width="4.4650002"
   height="23.906"
   id="rect28"
   style="fill:#7f7f7f;fill-opacity:1" />
<polygon
   points="530.068,231.342 529.346,249.506 524.99,249.506 526.4,225.6 531.959,225.6 538.506,241.439 544.721,225.6 550.283,225.6 551.682,249.506 547.229,249.506 546.396,231.342 540.326,246.225 536.275,246.225 "
   id="polygon30"
   style="fill:#7f7f7f;fill-opacity:1"
   transform="translate(-34.775002,-34.818001)" />
<rect
   x="525.89899"
   y="190.78201"
   width="4.4530001"
   height="23.906"
   id="rect32"
   style="fill:#7f7f7f;fill-opacity:1" />
<polygon
   points="574.701,225.6 574.701,249.506 591.033,249.506 591.033,245.951 579.166,245.951 579.166,225.6 "
   id="polygon34"
   style="fill:#7f7f7f;fill-opacity:1"
   transform="translate(-34.775002,-34.818001)" />
<rect
   x="563.84796"
   y="190.78201"
   width="4.4530001"
   height="23.906"
   id="rect36"
   style="fill:#7f7f7f;fill-opacity:1" />
<path
   d="m 586.594,195.227 -3.742,10.445 h 7.547 z m 7.063,19.461 -2.094,-5.812 h -9.812 l -2.125,5.812 h -4.699 l 9.531,-23.906 h 4.668 l 9.477,23.906 z"
   id="path38"
   style="fill:#7f7f7f;fill-opacity:1"
   inkscape:connector-curvature="0" />
<polygon
   points="639.854,225.6 645.689,225.6 655.713,243.42 655.713,225.6 660.096,225.6 660.096,249.506 654.264,249.506 644.252,231.686 644.252,249.506 639.854,249.506 "
   id="polygon40"
   style="fill:#7f7f7f;fill-opacity:1"
   transform="translate(-34.775002,-34.818001)" />
<path
   d="m 650.746,208.055 c 0,-3.609 -2.191,-5.32 -4.902,-6.484 l -4.734,-2.008 c -1.48,-0.617 -3.023,-1.438 -3.023,-3.148 0,-1.367 1.203,-2.898 3.844,-2.898 2.988,0 4.668,1.328 6.039,3.008 l 1.891,-2.969 c -1.727,-2.051 -4.738,-3.25 -7.93,-3.25 -3.844,0 -8.41,2.254 -8.41,6.863 0,2.941 1.988,4.883 4.566,5.977 l 4.734,2.012 c 1.852,0.789 3.258,1.672 3.258,3.555 0,1.531 -1.406,3.242 -4.422,3.242 -3.055,0 -5.039,-1.367 -6.766,-3.312 l -1.879,3 c 1.129,1.336 3.84,3.516 8.574,3.516 7.203,-0.002 9.16,-4.643 9.16,-7.104 z"
   id="path42"
   style="fill:#7f7f7f;fill-opacity:1"
   inkscape:connector-curvature="0" />
<rect
   x="656.47699"
   y="202.49301"
   width="9.3629999"
   height="2.977"
   id="rect44"
   style="fill:#7f7f7f;fill-opacity:1" />
<path
   d="m 396.661,259.063 c -5.152,0 -9.984,-1.855 -9.984,-10.039 V 234.68 h 4.453 v 14.742 c 0,3.789 1.82,6.359 5.531,6.359 3.629,0 5.418,-2.391 5.418,-6.359 V 234.68 h 4.453 v 14.344 c 0,7.609 -4.93,10.039 -9.871,10.039 z"
   id="path46"
   style="fill:#7f7f7f;fill-opacity:1"
   inkscape:connector-curvature="0" />
<polygon
   points="450.4,269.498 456.236,269.498 466.256,287.318 466.256,269.498 470.639,269.498 470.639,293.393 464.818,293.393 454.795,275.568 454.795,293.393 450.4,293.393 "
   id="polygon48"
   style="fill:#7f7f7f;fill-opacity:1"
   transform="translate(-34.775002,-34.818001)" />
<rect
   x="445.43802"
   y="234.67999"
   width="4.4650002"
   height="23.895"
   id="rect50"
   style="fill:#7f7f7f;fill-opacity:1" />
<polygon
   points="502.619,288.889 509.584,269.498 514.42,269.498 504.877,293.393 500.15,293.393 490.604,269.498 495.65,269.498 "
   id="polygon52"
   style="fill:#7f7f7f;fill-opacity:1"
   transform="translate(-34.775002,-34.818001)" />
<polygon
   points="525.498,272.982 525.498,279.264 536.205,279.264 536.205,282.678 525.498,282.678 525.498,289.85 537.58,289.85 537.58,293.393 521.033,293.393 521.033,269.498 537.127,269.498 537.127,272.982 "
   id="polygon54"
   style="fill:#7f7f7f;fill-opacity:1"
   transform="translate(-34.775002,-34.818001)" />
<path
   d="m 518.754,238.055 h -3.848 v 6.938 h 3.848 c 3.438,0 4.289,-1.672 4.289,-3.656 0,-1.805 -1.41,-3.282 -4.289,-3.282 z m 5.524,20.52 -4.832,-7.199 c -1.238,-1.844 -2.305,-3.113 -3.43,-3.113 h -1.109 v 10.312 h -4.453 V 234.68 h 9.16 c 4.219,0 8.027,2.215 8.027,6.656 0,4.504 -4.051,6.184 -6.109,6.418 0.691,0.441 1.578,1.602 1.891,2.051 l 6.18,8.77 z"
   id="path56"
   style="fill:#7f7f7f;fill-opacity:1"
   inkscape:connector-curvature="0" />
<path
   d="m 542.911,259.063 c -4.738,0 -7.445,-2.195 -8.582,-3.516 l 1.887,-3.008 c 1.723,1.945 3.711,3.312 6.762,3.312 3.02,0 4.426,-1.711 4.426,-3.242 0,-1.887 -1.406,-2.773 -3.258,-3.555 l -4.734,-2.016 c -2.578,-1.094 -4.566,-3.035 -4.566,-5.977 0,-4.609 4.566,-6.863 8.406,-6.863 3.195,0 6.207,1.191 7.93,3.242 l -1.887,2.969 c -1.371,-1.668 -3.051,-2.996 -6.043,-2.996 -2.641,0 -3.84,1.531 -3.84,2.898 0,1.711 1.543,2.531 3.02,3.145 l 4.727,2.012 c 2.711,1.164 4.914,2.871 4.914,6.484 -0.002,2.462 -1.959,7.111 -9.162,7.111 z"
   id="path58"
   style="fill:#7f7f7f;fill-opacity:1"
   inkscape:connector-curvature="0" />
<rect
   x="560.09796"
   y="234.67999"
   width="4.4650002"
   height="23.895"
   id="rect60"
   style="fill:#7f7f7f;fill-opacity:1" />
<polygon
   points="605.99,273.053 605.99,269.498 626.572,269.498 626.572,273.053 618.51,273.053 618.51,293.393 614.057,293.393 614.057,273.053 "
   id="polygon62"
   style="fill:#7f7f7f;fill-opacity:1"
   transform="translate(-34.775002,-34.818001)" />
<path
   d="m 610.395,232.5 c -1.273,0 -2.328,-1.094 -2.328,-2.297 0,-1.188 1.027,-2.281 2.328,-2.281 1.301,0 2.332,1.094 2.332,2.281 0,1.204 -1.055,2.297 -2.332,2.297 z m -3.367,6.621 -3.738,10.441 h 7.547 z M 603.77,232.5 c -1.266,0 -2.328,-1.094 -2.328,-2.297 0,-1.188 1.023,-2.281 2.328,-2.281 1.309,0 2.34,1.094 2.34,2.281 0,1.204 -1.071,2.297 -2.34,2.297 z m 10.336,26.075 -2.094,-5.801 h -9.82 l -2.121,5.801 h -4.699 l 9.531,-23.895 h 4.672 l 9.465,23.895 z"
   id="path64"
   style="fill:#7f7f7f;fill-opacity:1"
   inkscape:connector-curvature="0" />
<polygon
   points="657.389,273.053 657.389,269.498 677.971,269.498 677.971,273.053 669.9,273.053 669.9,293.393 665.447,293.393 665.447,273.053 "
   id="polygon66"
   style="fill:#7f7f7f;fill-opacity:1"
   transform="translate(-34.775002,-34.818001)" />
<polygon
   points="426.283,319.135 425.561,337.287 421.205,337.287 422.611,313.393 428.174,313.393 434.721,329.232 440.939,313.393 446.494,313.393 447.896,337.287 443.443,337.287 442.623,319.135 436.541,334.018 432.49,334.018 "
   id="polygon68"
   style="fill:#7f7f7f;fill-opacity:1"
   transform="translate(-34.775002,-34.818001)" />
<path
   d="m 434.606,276.387 c -1.277,0 -2.34,-1.094 -2.34,-2.285 0,-1.191 1.035,-2.285 2.34,-2.285 1.297,0 2.367,1.094 2.367,2.285 0,1.191 -1.109,2.285 -2.367,2.285 z m -6.629,0 c -1.262,0 -2.328,-1.094 -2.328,-2.285 0,-1.191 1.027,-2.285 2.328,-2.285 1.301,0 2.371,1.094 2.371,2.285 0,1.191 -1.098,2.285 -2.371,2.285 z m 3.644,26.563 c -5.152,0 -9.984,-1.836 -9.984,-10.039 v -14.336 h 4.453 v 14.754 c 0,3.789 1.82,6.352 5.531,6.352 3.629,0 5.418,-2.395 5.418,-6.352 v -14.754 h 4.453 v 14.336 c 10e-4,7.617 -4.929,10.039 -9.871,10.039 z"
   id="path70"
   style="fill:#7f7f7f;fill-opacity:1"
   inkscape:connector-curvature="0" />
<polygon
   points="485.361,313.393 491.197,313.393 501.217,331.217 501.217,313.393 505.6,313.393 505.6,337.287 499.779,337.287 489.756,319.475 489.756,337.287 485.361,337.287 "
   id="polygon72"
   style="fill:#7f7f7f;fill-opacity:1"
   transform="translate(-34.775002,-34.818001)" />
<path
   d="m 490.352,302.95 c -7.75,0 -11.391,-6.004 -11.391,-12.598 0,-6.453 4.422,-12.258 11.391,-12.258 3.438,0 6.109,1.133 7.93,3.039 l -1.754,3.32 c -1.34,-1.504 -2.668,-3.078 -6.105,-3.078 -4.055,0 -6.793,3.93 -6.793,8.977 0,4.953 2.949,9.328 6.832,9.328 2.852,0 4.727,-0.961 6.75,-3.117 l 1.715,3.418 c -2.778,2.121 -4.794,2.969 -8.575,2.969 z"
   id="path74"
   style="fill:#7f7f7f;fill-opacity:1"
   inkscape:connector-curvature="0" />
<polygon
   points="540.67,337.287 540.67,313.393 545.131,313.393 545.131,323.197 555.83,323.197 555.83,313.393 560.291,313.393 560.291,337.287 555.83,337.287 555.83,326.467 545.131,326.467 545.131,337.287 "
   id="polygon76"
   style="fill:#7f7f7f;fill-opacity:1"
   transform="translate(-34.775002,-34.818001)" />
<polygon
   points="574.193,316.881 574.193,323.158 584.896,323.158 584.896,326.576 574.193,326.576 574.193,333.744 586.268,333.744 586.268,337.287 569.732,337.287 569.732,313.393 585.822,313.393 585.822,316.881 "
   id="polygon78"
   style="fill:#7f7f7f;fill-opacity:1"
   transform="translate(-34.775002,-34.818001)" />
<polygon
   points="593.916,313.393 599.744,313.393 609.771,331.217 609.771,313.393 614.166,313.393 614.166,337.287 608.33,337.287 598.311,319.475 598.311,337.287 593.916,337.287 "
   id="polygon80"
   style="fill:#7f7f7f;fill-opacity:1"
   transform="translate(-34.775002,-34.818001)" />
</svg>