<?xml version="1.0" encoding="UTF-8" standalone="no"?>
<!-- Created with Inkscape (http://www.inkscape.org/) -->

<svg
   xmlns:dc="http://purl.org/dc/elements/1.1/"
   xmlns:cc="http://creativecommons.org/ns#"
   xmlns:rdf="http://www.w3.org/1999/02/22-rdf-syntax-ns#"
   xmlns:svg="http://www.w3.org/2000/svg"
   xmlns="http://www.w3.org/2000/svg"
   xmlns:sodipodi="http://sodipodi.sourceforge.net/DTD/sodipodi-0.dtd"
   xmlns:inkscape="http://www.inkscape.org/namespaces/inkscape"
   version="1.1"
   id="svg4571"
   xml:space="preserve"
   width="30mm"
   height="13mm"
   viewBox="0 0 113.38582 49.133855"
   sodipodi:docname="mnmLogoNeu.svg"
   inkscape:version="0.92.3 (2405546, 2018-03-11)"><metadata
     id="metadata4577"><rdf:RDF><cc:Work
         rdf:about=""><dc:format>image/svg+xml</dc:format><dc:type
           rdf:resource="http://purl.org/dc/dcmitype/StillImage" /><dc:title></dc:title></cc:Work></rdf:RDF></metadata><defs
     id="defs4575" /><sodipodi:namedview
     pagecolor="#ffffff"
     bordercolor="#666666"
     borderopacity="1"
     objecttolerance="10"
     gridtolerance="10"
     guidetolerance="10"
     inkscape:pageopacity="0"
     inkscape:pageshadow="2"
     inkscape:window-width="1278"
     inkscape:window-height="353"
     id="namedview4573"
     showgrid="false"
     inkscape:zoom="2.1927343"
     inkscape:cx="152.09321"
     inkscape:cy="29.265567"
     inkscape:window-x="0"
     inkscape:window-y="711"
     inkscape:window-maximized="0"
     inkscape:current-layer="g4579"
     fit-margin-top="0"
     fit-margin-left="0"
     fit-margin-right="0"
     fit-margin-bottom="0"
     units="mm" /><g
     id="g4579"
     inkscape:groupmode="layer"
     inkscape:label="mnmLogoNeu"
     transform="matrix(1.3333333,0,0,1.3333333,0,-9.3968063)"><g
       id="g4581"
       transform="matrix(0.37499778,0,0,0.37499778,0,18.436346)"><path
         d="m 125.172,28.18 c -5.981,-7.047 -13.145,-14.602 -19.875,-21.766 -0.039,1.457 -0.117,3.82 -0.117,7.988 0,3.387 0.156,11.692 0.351,13.266 -0.429,-0.117 -0.902,-0.199 -1.375,-0.199 -0.472,0 -0.945,0.082 -1.457,0.199 0.317,-1.852 0.828,-11.926 0.828,-17.121 0,-4.957 0,-8.774 -0.121,-10.547 h 0.633 c 6.414,6.965 15.113,16.449 19.914,21.293 0,-7.047 0,-14.723 -0.312,-20.781 0.433,0.117 0.902,0.199 1.336,0.199 0.433,0 0.828,-0.082 1.261,-0.199 -0.238,2.324 -0.633,10.113 -0.633,13.183 0,4.016 0.079,12.711 0.122,14.485 h -0.555"
         style="fill:#000000;fill-opacity:1;fill-rule:nonzero;stroke:none"
         id="path4583"
         inkscape:connector-curvature="0" /><path
         d="m 73.883,5.781 c 3.582,7.403 4.961,8.543 8.976,15.907 1.575,-3.075 5.063,-8.626 8.922,-15.907 h 0.512 c 1.18,10.078 1.285,12.832 2.547,21.844 -0.629,-0.117 -1.219,-0.195 -1.852,-0.195 -0.629,0 -1.218,0.078 -1.847,0.195 -0.551,-7.043 -0.422,-7.754 -1.25,-14.484 h -0.079 c -3.582,6.574 -4.433,7.246 -7.546,14.328 h -0.352 c -3.07,-6.531 -4.371,-7.52 -7.793,-14.328 h -0.082 c -0.746,6.496 -1.043,10.039 -1.082,14.484 -0.473,-0.117 -0.906,-0.195 -1.379,-0.195 -0.473,0 -0.906,0.078 -1.379,0.195 1.379,-8.695 2.149,-13.5 3.016,-21.844 h 0.668"
         style="fill:#000000;fill-opacity:1;fill-rule:nonzero;stroke:none"
         id="path4585"
         inkscape:connector-curvature="0" /><path
         d="m 137.707,5.781 c 3.582,7.403 4.961,8.543 8.973,15.907 1.578,-3.075 5.066,-8.626 8.925,-15.907 h 0.512 c 1.18,10.078 1.285,12.832 2.547,21.844 -0.629,-0.117 -1.219,-0.195 -1.852,-0.195 -0.628,0 -1.218,0.078 -1.847,0.195 -0.551,-7.043 -0.422,-7.754 -1.25,-14.484 h -0.078 c -3.582,6.574 -4.438,7.246 -7.547,14.328 h -0.352 c -3.07,-6.531 -4.371,-7.52 -7.797,-14.328 h -0.078 c -0.746,6.496 -1.047,10.039 -1.082,14.484 -0.476,-0.117 -0.906,-0.195 -1.379,-0.195 -0.472,0 -0.906,0.078 -1.379,0.195 1.379,-8.695 2.149,-13.5 3.012,-21.844 h 0.672"
         style="fill:#000000;fill-opacity:1;fill-rule:nonzero;stroke:none"
         id="path4587"
         inkscape:connector-curvature="0" /><path
         d="m 99.227,38.539 c 0,-0.855 -0.012,-1.715 -0.039,-2.57 -0.903,0 -2.063,0.047 -2.793,0.136 0.039,-0.125 0.066,-0.261 0.066,-0.398 0,-0.125 -0.027,-0.25 -0.066,-0.387 1.121,0.039 2.246,0.063 3.367,0.063 1.121,0 2.246,-0.024 3.367,-0.063 -0.039,0.137 -0.067,0.262 -0.067,0.399 0,0.125 0.028,0.261 0.067,0.386 -0.731,-0.089 -1.895,-0.136 -2.793,-0.136 -0.027,0.855 -0.039,1.715 -0.039,2.57 v 2.137 c 0,1.07 0.051,2.152 0.105,3.222 -0.222,-0.039 -0.433,-0.062 -0.64,-0.062 -0.207,0 -0.418,0.023 -0.641,0.062 0.055,-1.07 0.106,-2.152 0.106,-3.222 v -2.137"
         style="fill:#000000;fill-opacity:1;fill-rule:nonzero;stroke:none"
         id="path4589"
         inkscape:connector-curvature="0" /><path
         d="m 104.93,38.527 c 0,-1.066 -0.055,-2.148 -0.106,-3.207 0.785,0.039 1.555,0.063 2.336,0.063 0.781,0 1.555,-0.024 2.324,-0.063 -0.027,0.125 -0.039,0.25 -0.039,0.375 0,0.125 0.012,0.246 0.039,0.371 -1.097,-0.074 -1.738,-0.16 -3.433,-0.16 -0.012,0.535 -0.051,0.969 -0.051,1.578 0,0.645 0.012,1.328 0.012,1.641 1.539,0 2.402,-0.063 3.172,-0.125 -0.028,0.125 -0.039,0.262 -0.039,0.387 0,0.125 0.011,0.246 0.039,0.371 -0.903,-0.086 -2.543,-0.113 -3.172,-0.113 -0.012,0.3 -0.012,0.609 -0.012,1.804 0,0.946 0.012,1.555 0.023,1.863 1.165,0 2.704,-0.011 3.524,-0.16 -0.024,0.11 -0.039,0.274 -0.039,0.383 0,0.113 0.015,0.25 0.039,0.363 -0.77,-0.039 -1.551,-0.062 -2.348,-0.062 -0.797,0 -1.578,0.023 -2.375,0.062 0.051,-1.082 0.106,-2.164 0.106,-3.234 v -2.137"
         style="fill:#000000;fill-opacity:1;fill-rule:nonzero;stroke:none"
         id="path4591"
         inkscape:connector-curvature="0" /><path
         d="m 114.992,35.16 c 1.278,2.883 3.235,7.406 3.926,8.738 -0.234,-0.039 -0.457,-0.062 -0.691,-0.062 -0.235,0 -0.457,0.023 -0.692,0.062 -0.246,-0.859 -0.875,-2.226 -1.344,-3.332 -0.558,-0.011 -1.132,-0.027 -1.707,-0.027 -0.539,0 -1.058,0.016 -1.593,0.027 -0.547,1.282 -1.047,2.547 -1.266,3.332 -0.172,-0.039 -0.328,-0.062 -0.484,-0.062 -0.157,0 -0.313,0.023 -0.485,0.062 1.399,-2.91 2.754,-5.804 4.086,-8.738 z m -0.43,1.68 -1.425,3.156 c 0.457,0 0.953,0.024 1.41,0.024 0.484,0 0.98,-0.012 1.461,-0.024 l -1.446,-3.156"
         style="fill:#000000;fill-opacity:1;fill-rule:nonzero;stroke:none"
         id="path4593"
         inkscape:connector-curvature="0" /><path
         d="m 121.516,35.16 c 1.187,2.336 2.414,4.524 3.746,6.848 0.519,-0.969 2.597,-4.547 3.875,-6.848 h 0.172 c 0.386,3.184 0.648,5.891 1.066,8.738 -0.207,-0.039 -0.402,-0.062 -0.613,-0.062 -0.207,0 -0.403,0.023 -0.614,0.062 -0.179,-2.226 -0.363,-4.289 -0.64,-6.414 h -0.024 c -1.187,2.075 -2.386,4.114 -3.418,6.352 h -0.117 c -1.019,-2.063 -2.219,-4.203 -3.355,-6.352 h -0.024 c -0.25,2.051 -0.617,5.008 -0.629,6.414 -0.156,-0.039 -0.3,-0.062 -0.457,-0.062 -0.156,0 -0.3,0.023 -0.457,0.062 0.457,-2.75 0.981,-6.105 1.266,-8.738 h 0.223"
         style="fill:#000000;fill-opacity:1;fill-rule:nonzero;stroke:none"
         id="path4595"
         inkscape:connector-curvature="0" /><path
         d="m 89.664,35.484 c 0,-0.172 -0.144,-0.312 -0.316,-0.312 L 0.316,35.16 c -0.171,0 -0.312,0.141 -0.312,0.313 L 0,35.754 c 0,0.172 0.137,0.316 0.312,0.316 l 89.036,1.711 c 0.172,0.004 0.316,-0.133 0.316,-0.304 v -1.993"
         style="fill:#000000;fill-opacity:1;fill-rule:nonzero;stroke:none"
         id="path4597"
         inkscape:connector-curvature="0" /><path
         d="m 137.109,35.484 c 0,-0.172 0.141,-0.312 0.313,-0.312 l 89.031,-0.012 c 0.176,0 0.317,0.141 0.317,0.313 l 0.003,0.281 c 0,0.172 -0.14,0.316 -0.312,0.316 l -89.039,1.711 c -0.172,0.004 -0.313,-0.133 -0.313,-0.304 v -1.993"
         style="fill:#000000;fill-opacity:1;fill-rule:nonzero;stroke:none"
         id="path4599"
         inkscape:connector-curvature="0" /></g></g></svg>